HIERARCHY
ROOT Hips
{
	OFFSET 0.000000 0.000000 0.000000
	CHANNELS 6 Xposition Yposition Zposition Xrotation Yrotation Zrotation
	JOINT LeftUpLeg_virtual
	{
		OFFSET 0.000000 0.000000 0.000000
		CHANNELS 3 Xrotation Yrotation Zrotation
		JOINT LeftUpLeg
		{
			OFFSET 13.026900 -6.336304 -1.092800
			CHANNELS 3 Xrotation Yrotation Zrotation
			JOINT LeftLeg
			{
				OFFSET 0.524474 -46.096886 9.782700
				CHANNELS 3 Xrotation Yrotation Zrotation
				JOINT LeftFoot
				{
					OFFSET -0.524474 -53.427422 -12.948200
					CHANNELS 3 Xrotation Yrotation Zrotation
					JOINT LeftToeBase
					{
						OFFSET 0.192200 -14.009700 16.364100
						CHANNELS 3 Xrotation Yrotation Zrotation
						JOINT LeftToe_End
						{
							OFFSET -1.784700 -0.561700 9.474800
							CHANNELS 3 Xrotation Yrotation Zrotation
							End Site
							{
								OFFSET 0 0 0
							}
						}
					}
				}
			}
		}
	}
	JOINT RightUpLeg_virtual
	{
		OFFSET 0.000000 0.000000 0.000000
		CHANNELS 3 Xrotation Yrotation Zrotation
		JOINT RightUpLeg
		{
			OFFSET -12.883000 -6.336304 -1.092800
			CHANNELS 3 Xrotation Yrotation Zrotation
			JOINT RightLeg
			{
				OFFSET -0.524587 -46.096825 9.782800
				CHANNELS 3 Xrotation Yrotation Zrotation
				JOINT RightFoot
				{
					OFFSET 0.524587 -53.427383 -12.948300
					CHANNELS 3 Xrotation Yrotation Zrotation
					JOINT RightToeBase
					{
						OFFSET -0.192200 -14.009700 16.364100
						CHANNELS 3 Xrotation Yrotation Zrotation
						JOINT RightToe_End
						{
							OFFSET 1.784700 -0.561700 9.474800
							CHANNELS 3 Xrotation Yrotation Zrotation
							End Site
							{
								OFFSET 0 0 0
							}
						}
					}
				}
			}
		}
	}
	JOINT Spine_virtual
	{
		OFFSET 0.000000 0.000000 0.000000
		CHANNELS 3 Xrotation Yrotation Zrotation
		JOINT Spine
		{
			OFFSET 0.072000 7.257294 -0.789700
			CHANNELS 3 Xrotation Yrotation Zrotation
			JOINT Spine1
			{
				OFFSET 0.000000 12.508769 -0.658067
				CHANNELS 3 Xrotation Yrotation Zrotation
				JOINT Spine1_split
				{
					OFFSET 0.000000 12.508769 -0.658067
					CHANNELS 3 Xrotation Yrotation Zrotation
					JOINT Spine2
					{
						OFFSET 0.000000 12.508769 -0.658067
						CHANNELS 3 Xrotation Yrotation Zrotation
						JOINT Neck_virtual
						{
							OFFSET 0.000000 0.000000 0.000000
							CHANNELS 3 Xrotation Yrotation Zrotation
							JOINT Neck
							{
								OFFSET 0.000000 14.033295 7.520400
								CHANNELS 3 Xrotation Yrotation Zrotation
								JOINT Head
								{
									OFFSET 0.000000 8.198502 5.703100
									CHANNELS 3 Xrotation Yrotation Zrotation
									JOINT HeadTop_End
									{
										OFFSET 0.000000 17.760803 13.332701
										CHANNELS 3 Xrotation Yrotation Zrotation
										End Site
										{
											OFFSET 0 0 0
										}
									}
								}
							}
						}
						JOINT LeftShoulder_virtual
						{
							OFFSET 0.000000 0.000000 0.000000
							CHANNELS 3 Xrotation Yrotation Zrotation
							JOINT LeftShoulder
							{
								OFFSET 6.292450 5.785301 -0.669000
								CHANNELS 3 Xrotation Yrotation Zrotation
								JOINT LeftShoulder_split
								{
									OFFSET 6.292450 5.785301 -0.669000
									CHANNELS 3 Xrotation Yrotation Zrotation
									JOINT LeftArm
									{
										OFFSET 13.907140 -6.093903 1.965100
										CHANNELS 3 Xrotation Yrotation Zrotation
										JOINT LeftForeArm
										{
											OFFSET 34.140198 0.000000 0.000000
											CHANNELS 3 Xrotation Yrotation Zrotation
											JOINT LeftHand
											{
												OFFSET 40.960209 0.000000 0.000000
												CHANNELS 3 Xrotation Yrotation Zrotation
												End Site
												{
													OFFSET 0 0 0
												}
											}
										}
									}
								}
							}
						}
						JOINT RightShoulder_virtual
						{
							OFFSET 0.000000 0.000000 0.000000
							CHANNELS 3 Xrotation Yrotation Zrotation
							JOINT RightShoulder
							{
								OFFSET -6.292450 5.785301 -0.669000
								CHANNELS 3 Xrotation Yrotation Zrotation
								JOINT RightShoulder_split
								{
									OFFSET -6.292450 5.785301 -0.669000
									CHANNELS 3 Xrotation Yrotation Zrotation
									JOINT RightArm
									{
										OFFSET -13.907140 -6.093903 1.965100
										CHANNELS 3 Xrotation Yrotation Zrotation
										JOINT RightForeArm
										{
											OFFSET -34.140198 0.000000 0.000000
											CHANNELS 3 Xrotation Yrotation Zrotation
											JOINT RightHand
											{
												OFFSET -40.960209 0.000000 0.000000
												CHANNELS 3 Xrotation Yrotation Zrotation
												End Site
												{
													OFFSET 0 0 0
												}
											}
										}
									}
								}
							}
						}
					}
				}
			}
		}
	}
}
MOTION
Frames: 9
Frame Time: 0.03333333
11.712582 115.590431 17.734322 0.000000 0.000000 0.000000 -1.293249 6.166288 -4.604753 1.728512 10.951134 7.901465 17.858112 -7.447282 -0.403710 -19.427546 2.076347 -0.479562 -0.000034 0.013867 0.000002 0.000000 0.000000 0.000000 -1.293249 6.166288 -4.604753 -31.625425 -6.738954 -2.605434 31.022456 0.054758 1.153369 0.504084 0.633173 7.004440 2.226791 -0.483389 -0.382522 0.000000 0.000000 0.000000 -1.293249 6.166288 -4.604753 9.975040 -1.690624 2.064759 1.871315 -1.420406 1.481033 0.000000 0.000000 0.000000 0.000000 0.000000 0.000000 -3.085456 -1.618651 0.047467 -2.263183 -2.413853 6.433473 -4.853450 1.032563 -5.132381 0.000000 0.000000 0.000000 -3.085456 -1.618651 0.047467 1.744051 -3.421884 -0.743977 0.000000 0.000000 0.000000 -7.039689 -12.744834 -76.199988 9.887308 -11.719664 -4.534074 0.000000 0.000000 0.000000 -3.085456 -1.618651 0.047467 2.245580 4.208255 6.197043 0.000000 0.000000 0.000000 0.519970 4.376570 72.028819 11.172625 15.288352 2.172148 0.000000 0.000000 0.000000 
11.707076 115.868591 19.759075 0.000000 0.000000 0.000000 -1.020562 6.378868 -5.183553 3.449597 10.670136 8.427914 16.064970 -7.121557 -0.394673 -19.521222 2.200448 -0.905408 -0.246217 -0.053490 0.095354 0.000000 0.000000 0.000000 -1.020562 6.378868 -5.183553 -30.268472 -7.272917 -1.470688 22.990171 2.135842 1.187269 -1.163313 0.692527 6.220430 2.816723 -1.971481 -0.307399 0.000000 0.000000 0.000000 -1.020562 6.378868 -5.183553 10.262689 -1.768897 2.230562 1.530881 -1.655980 1.713172 0.000000 0.000000 0.000000 0.000000 0.000000 0.000000 -3.029678 -1.822409 0.405165 -2.777379 -2.362639 6.163047 -5.001021 1.132729 -5.650764 0.000000 0.000000 0.000000 -3.029678 -1.822409 0.405165 1.734721 -2.975679 -1.007657 0.000000 0.000000 0.000000 -6.950075 -13.745414 -75.686890 9.739465 -12.702266 -4.881113 0.000000 0.000000 0.000000 -3.029678 -1.822409 0.405165 2.341270 3.697851 6.000392 0.000000 0.000000 0.000000 0.577669 4.244793 72.228472 11.271328 14.839597 2.930557 0.000000 0.000000 0.000000 
11.590287 116.025169 21.911419 0.000000 0.000000 0.000000 -0.700458 6.706979 -5.586089 4.858230 10.396299 8.987287 14.753919 -7.144042 -0.520806 -19.394377 2.449592 -1.283210 -0.872586 -0.116193 0.255428 0.000000 0.000000 0.000000 -0.700458 6.706979 -5.586089 -29.163699 -7.664737 -0.952713 16.137104 2.583427 1.477721 -2.586816 1.482971 5.367765 3.434472 -2.331932 -0.245680 0.000000 0.000000 0.000000 -0.700458 6.706979 -5.586089 10.736160 -1.853176 2.204306 0.862137 -1.917849 2.026345 0.000000 0.000000 0.000000 0.000000 0.000000 0.000000 -3.297927 -2.045511 0.855363 -2.624585 -2.258869 5.439391 -5.463569 1.111056 -5.993755 0.000000 0.000000 0.000000 -3.297927 -2.045511 0.855363 1.733736 -2.483403 -1.370493 0.000000 0.000000 0.000000 -6.732599 -14.418225 -75.287857 10.256400 -13.631163 -5.186334 0.000000 0.000000 0.000000 -3.297927 -2.045511 0.855363 2.386604 3.103078 5.622620 0.000000 0.000000 0.000000 1.342288 4.454619 72.514698 10.835910 14.812580 3.464563 0.000000 0.000000 0.000000 
11.359865 115.884651 24.261253 0.000000 0.000000 0.000000 -0.457417 7.138877 -5.686635 6.110971 10.170871 9.408925 14.096749 -7.183774 -0.613088 -19.455451 2.623231 -1.775231 -1.775783 -0.293907 0.550002 0.000000 0.000000 0.000000 -0.457417 7.138877 -5.686635 -28.930065 -8.091159 -0.264219 11.973532 3.436778 0.765570 -4.796999 1.265071 4.364971 4.567336 -2.215468 0.162104 0.000000 0.000000 0.000000 -0.457417 7.138877 -5.686635 11.200664 -2.020913 2.003823 0.235687 -2.232094 2.351253 0.000000 0.000000 0.000000 0.000000 0.000000 0.000000 -3.522573 -2.316608 1.321168 -2.346560 -2.015607 4.576849 -6.100113 1.082042 -5.984655 0.000000 0.000000 0.000000 -3.522573 -2.316608 1.321168 1.744295 -1.890688 -2.064281 0.000000 0.000000 0.000000 -6.496888 -15.195422 -74.597352 10.432931 -14.507993 -5.620980 0.000000 0.000000 0.000000 -3.522573 -2.316608 1.321168 2.430736 3.001840 5.025310 0.000000 0.000000 0.000000 2.288173 4.957966 72.956802 9.695932 15.072120 3.859009 0.000000 0.000000 0.000000 
11.049420 115.613441 26.873400 0.000000 0.000000 0.000000 -0.133984 7.730957 -5.650681 7.305011 9.843354 9.795865 13.626551 -6.956711 -0.648822 -19.485891 2.705403 -2.564730 -2.785024 -0.722992 0.876524 0.000000 0.000000 0.000000 -0.133984 7.730957 -5.650681 -29.121215 -8.559077 -0.176299 9.142012 3.511625 0.451163 -5.384185 0.922928 3.893887 3.874319 -2.217031 -0.191091 0.000000 0.000000 0.000000 -0.133984 7.730957 -5.650681 11.481792 -2.207929 2.013140 -0.267883 -2.505731 2.438230 0.000000 0.000000 0.000000 0.000000 0.000000 0.000000 -3.639367 -2.552967 1.545706 -2.540638 -1.937425 4.132868 -6.546499 1.079398 -6.140813 0.000000 0.000000 0.000000 -3.639367 -2.552967 1.545706 1.771420 -1.312999 -2.562466 0.000000 0.000000 0.000000 -6.915109 -15.688079 -74.148616 10.629452 -15.033038 -6.181483 0.000000 0.000000 0.000000 -3.639367 -2.552967 1.545706 2.484941 2.727734 4.797701 0.000000 0.000000 0.000000 2.953609 5.669618 73.191412 8.978891 15.443447 4.100293 0.000000 0.000000 0.000000 
10.613914 115.061127 29.779587 0.000000 0.000000 0.000000 -0.030371 8.191327 -5.371364 8.957861 9.714754 9.900335 13.150373 -8.274813 -0.788561 -19.924510 4.177406 -2.676589 -3.586070 -1.165223 1.105120 0.000000 0.000000 0.000000 -0.030371 8.191327 -5.371364 -29.573172 -8.847564 -0.353234 8.420856 3.741324 0.389862 -5.565790 0.676967 3.189501 4.964858 -2.744300 -0.319017 0.000000 0.000000 0.000000 -0.030371 8.191327 -5.371364 12.016604 -2.376932 1.796261 -0.697593 -2.737815 2.600813 0.000000 0.000000 0.000000 0.000000 0.000000 0.000000 -3.688903 -2.736438 1.848267 -3.181364 -1.758249 3.671368 -7.056055 1.222111 -6.453505 0.000000 0.000000 0.000000 -3.688903 -2.736438 1.848267 1.797103 -0.815835 -3.374227 0.000000 0.000000 0.000000 -7.440943 -15.961819 -73.641064 11.242137 -15.683043 -6.492502 0.000000 0.000000 0.000000 -3.688903 -2.736438 1.848267 2.535503 2.578136 4.509842 0.000000 0.000000 0.000000 2.885986 5.757752 73.375616 8.576650 15.662379 4.279662 0.000000 0.000000 0.000000 
10.008610 114.175858 33.148479 0.000000 0.000000 0.000000 0.055302 8.478427 -4.879354 10.276016 9.630753 10.104286 13.707301 -8.547377 -0.868583 -20.095113 4.752236 -3.323397 -5.321087 -1.780422 1.102413 0.000000 0.000000 0.000000 0.055302 8.478427 -4.879354 -31.144925 -8.912687 -0.996408 11.407581 3.577868 0.725562 -5.424103 0.920385 2.455698 5.815669 -3.369808 -0.577318 0.000000 0.000000 0.000000 0.055302 8.478427 -4.879354 12.377605 -2.495132 2.035612 -1.060286 -2.678121 1.991261 0.000000 0.000000 0.000000 0.000000 0.000000 0.000000 -3.720846 -2.671221 1.359483 -3.869724 -2.177311 4.922014 -7.364443 1.585025 -7.568341 0.000000 0.000000 0.000000 -3.720846 -2.671221 1.359483 1.768131 -0.999048 -2.674479 0.000000 0.000000 0.000000 -7.807290 -15.922657 -73.792981 11.902954 -16.455633 -6.599627 0.000000 0.000000 0.000000 -3.720846 -2.671221 1.359483 2.575990 1.858236 5.930298 0.000000 0.000000 0.000000 3.132309 6.965191 72.543316 8.164170 16.111895 4.419319 0.000000 0.000000 0.000000 
9.266181 113.594398 36.865509 0.000000 0.000000 0.000000 -0.051794 8.734627 -4.220320 12.350852 9.350269 10.181953 13.332766 -8.624034 -1.014088 -18.969348 5.560214 -4.154605 -7.950366 -2.636723 0.941329 0.000000 0.000000 0.000000 -0.051794 8.734627 -4.220320 -32.078707 -8.856775 -1.682706 14.342680 3.532795 1.299730 -0.799249 1.681607 1.019614 3.657337 -4.136396 -0.301613 0.000000 0.000000 0.000000 -0.051794 8.734627 -4.220320 13.104577 -2.667412 1.839421 -1.621722 -2.745519 1.772019 0.000000 0.000000 0.000000 0.000000 0.000000 0.000000 -3.943640 -2.712255 1.273779 -4.668433 -2.031046 4.938780 -6.900691 1.728085 -7.503966 0.000000 0.000000 0.000000 -3.943640 -2.712255 1.273779 1.817416 -0.486510 -2.569395 0.000000 0.000000 0.000000 -7.445511 -16.441218 -73.688268 11.501756 -17.237996 -6.954228 0.000000 0.000000 0.000000 -3.943640 -2.712255 1.273779 2.636076 1.414697 6.369678 0.000000 0.000000 0.000000 3.201249 8.163650 72.080277 7.311550 16.021208 5.021459 0.000000 0.000000 0.000000 
8.453496 113.174522 40.787968 0.000000 0.000000 0.000000 0.113896 8.864081 -3.867911 13.960644 8.370653 10.468290 13.291734 -7.999844 -0.951099 -16.584726 6.334770 -5.230796 -11.790758 -3.388825 0.174525 0.000000 0.000000 0.000000 0.113896 8.864081 -3.867911 -32.677537 -8.842669 -1.809387 16.638561 3.526616 1.674052 4.600828 2.294251 -0.428644 2.342504 -3.274310 0.093040 0.000000 0.000000 0.000000 0.113896 8.864081 -3.867911 13.276940 -2.733757 1.848507 -2.095756 -2.817796 1.711168 0.000000 0.000000 0.000000 0.000000 0.000000 0.000000 -4.094574 -2.754248 1.330579 -5.358864 -1.690189 4.544435 -6.740703 1.850105 -7.189495 0.000000 0.000000 0.000000 -4.094574 -2.754248 1.330579 1.881692 0.113705 -3.388256 0.000000 0.000000 0.000000 -7.277089 -16.681579 -72.967840 11.416840 -17.585060 -7.412414 0.000000 0.000000 0.000000 -4.094574 -2.754248 1.330579 2.711985 1.010810 6.365195 0.000000 0.000000 0.000000 3.109646 9.284522 71.798266 6.979033 16.173188 5.335655 0.000000 0.000000 0.000000 
